<svg width="264" height="44" viewBox="0 0 264 44" fill="none" xmlns="http://www.w3.org/2000/svg">
<g clip-path="url(#clip0_3100_1971)">
<path d="M22.2628 29.0986C22.1048 28.5931 21.9644 28.0635 21.8474 27.5098C21.7947 27.2209 21.6836 26.5529 21.6836 26.5348H18.448C18.1577 26.5128 17.8698 26.603 17.6406 26.7876C17.4228 27.013 17.2621 27.2899 17.1725 27.5941C16.823 28.7037 16.1562 29.679 15.2592 30.3926C14.3361 30.988 13.2584 31.2798 12.1699 31.2291C8.7647 31.2291 6.96456 29.0405 6.76953 24.6631L6.72272 23.0021L6.76953 21.1304C6.83389 18.9156 7.35462 17.2666 8.26737 16.1893C8.76229 15.6411 9.36857 15.2119 10.0431 14.9321C10.7176 14.6522 11.4438 14.5288 12.1699 14.5704C13.2458 14.5306 14.3076 14.831 15.2124 15.431C16.1101 16.1389 16.784 17.1042 17.1491 18.2055C17.2551 18.5144 17.4225 18.7973 17.6406 19.036C17.8649 19.2105 18.1446 19.2921 18.4246 19.2647H21.6485C21.7623 18.3687 21.9442 17.4833 22.1926 16.6166C22.3807 15.9621 22.6194 15.3242 22.9064 14.7088C22.8011 14.5222 22.6899 14.3297 22.5671 14.1431C21.559 12.6543 20.1892 11.4632 18.5943 10.6886C16.5527 9.68686 14.3079 9.20193 12.0471 9.27426C8.4507 9.27426 5.57984 10.2994 3.4345 12.3496C1.28916 14.3999 0.159926 17.2445 0.0468075 20.8836L0 22.8998L0.0468075 24.9159C0.183329 28.551 1.32036 31.3956 3.4579 33.4499C5.59544 35.5041 8.4663 36.5293 12.0705 36.5253C14.3716 36.6125 16.6576 36.1099 18.723 35.0628C20.3005 34.2558 21.6518 33.0481 22.649 31.5541C22.7835 31.3375 22.9006 31.1268 23.0176 30.9162C22.7237 30.3299 22.4714 29.7224 22.2628 29.0986Z" fill="white"/>
<path d="M48.399 10.0747C48.2827 9.95715 48.1445 9.86506 47.9926 9.80402C47.8407 9.74299 47.6784 9.71428 47.5155 9.71964H43.5719C43.2543 9.71085 42.9459 9.82957 42.7119 10.0506C42.5953 10.163 42.5049 10.3008 42.4471 10.4539C42.3894 10.6071 42.3659 10.7716 42.3784 10.9353V12.6385C41.5226 11.5816 40.4548 10.7276 39.2481 10.1349C37.7708 9.48673 36.1724 9.18256 34.5674 9.24419C31.1777 9.24419 28.6579 10.3355 27.0079 12.5182C26.0894 13.752 25.4046 15.1525 24.9894 16.6467C24.72 17.5553 24.5243 18.4853 24.4043 19.4272C24.3282 20.029 24.2756 20.6309 24.2463 21.2327C24.1816 22.3471 24.1816 23.4645 24.2463 24.5789C24.2873 25.3131 24.3516 25.9872 24.4452 26.601C24.492 26.926 24.5447 27.2029 24.6032 27.5158C24.712 28.0526 24.8487 28.583 25.0128 29.1047C25.5896 31.0467 26.6673 32.7917 28.1313 34.1541C29.9139 35.7589 32.2172 36.5614 35.0413 36.5614C36.5322 36.6315 38.0166 36.317 39.3593 35.6466C40.5165 34.9656 41.5276 34.0504 42.3315 32.9564L42.4135 32.8481C43.0517 31.9684 43.5439 30.9862 43.8703 29.9412C43.8539 31.0741 43.6562 32.1965 43.2852 33.2633C43.1208 33.8261 42.9155 34.3753 42.6709 34.9063C42.6007 35.0448 42.5305 35.1772 42.4544 35.3096C42.5409 35.5531 42.7015 35.7614 42.9124 35.9034C43.1232 36.0455 43.373 36.1137 43.6246 36.098H47.5623C47.717 36.1029 47.8712 36.0761 48.0158 36.0193C48.1604 35.9625 48.2926 35.8767 48.4048 35.767C48.5241 35.6566 48.6169 35.5193 48.6758 35.3657C48.7347 35.2122 48.7581 35.0467 48.7442 34.8823V10.9594C48.7482 10.7955 48.7197 10.6325 48.6603 10.4804C48.601 10.3283 48.512 10.1902 48.399 10.0747ZM42.1268 24.6752C42.1105 26.3347 41.5543 27.9407 40.547 29.2371C40.021 29.8699 39.3593 30.3684 38.614 30.6932C37.8687 31.018 37.0603 31.1603 36.2524 31.1088C35.6552 31.153 35.0554 31.0723 34.4893 30.8717C33.9231 30.671 33.4024 30.3545 32.9583 29.9412C32.1359 29.0246 31.5928 27.88 31.3961 26.6492C31.2643 25.9131 31.1764 25.1695 31.1329 24.4224C31.0619 23.4086 31.0619 22.3909 31.1329 21.3771C31.4956 16.9156 33.3367 14.6868 36.6561 14.6908C37.9535 14.6131 39.2293 15.0577 40.2135 15.9306C41.0895 16.7948 41.6825 17.918 41.9103 19.1443C42.0144 19.6799 42.0751 20.2234 42.0917 20.7693C42.1268 21.985 42.156 23.291 42.1268 24.6752Z" fill="white"/>
<path d="M164.183 0.0782419H160.673C160.433 0.0721025 160.201 0.160397 160.023 0.324993C159.845 0.490592 159.707 0.696659 159.619 0.926826L157.864 5.86787C157.828 5.92737 157.808 5.99621 157.808 6.06648C157.808 6.13675 157.828 6.20559 157.864 6.26508C157.897 6.31857 157.943 6.36258 157.998 6.39308C158.052 6.42358 158.112 6.43958 158.174 6.43962H160.485C160.703 6.43341 160.915 6.36477 161.097 6.24142C161.279 6.11808 161.424 5.94493 161.515 5.74149L164.441 0.758313C164.485 0.666641 164.509 0.565874 164.511 0.463415C164.515 0.415802 164.509 0.367851 164.495 0.322435C164.48 0.277018 164.457 0.235071 164.427 0.199106C164.396 0.16314 164.359 0.133898 164.317 0.11313C164.275 0.0923616 164.23 0.0804954 164.183 0.0782419Z" fill="#F6BD00"/>
<path d="M87.5475 12.0788C86.7084 11.1468 85.6843 10.4113 84.5445 9.9222C83.4048 9.43311 82.1761 9.20187 80.9418 9.24414C79.3032 9.23079 77.6896 9.65817 76.2611 10.4839C74.8776 11.2424 73.7191 12.3716 72.9085 13.7519C71.4653 10.7427 68.9182 9.24013 65.2672 9.24414C63.8963 9.194 62.5335 9.48003 61.2913 10.0786C60.0491 10.6772 58.9632 11.5711 58.1232 12.6866V10.9654C58.1335 10.8046 58.1103 10.6433 58.0552 10.4925C58 10.3416 57.9142 10.2046 57.8034 10.0906C57.6926 9.97668 57.5594 9.88838 57.4128 9.83165C57.2661 9.77492 57.1093 9.75108 56.953 9.76172H53.0563C52.9025 9.75762 52.7495 9.78475 52.6059 9.84155C52.4623 9.89834 52.3311 9.9837 52.2196 10.0927C52.104 10.2076 52.0135 10.3464 51.954 10.5C51.8945 10.6535 51.8673 10.8183 51.8744 10.9834V34.9063C51.8744 35.2255 51.9977 35.5317 52.2171 35.7574C52.4366 35.9831 52.7342 36.11 53.0446 36.11H57.2338C57.3935 36.1171 57.5528 36.0891 57.7011 36.0279C57.8495 35.9667 57.9834 35.8736 58.0939 35.7549C58.3094 35.5282 58.4292 35.2233 58.4274 34.9063V20.7452C58.4274 18.6508 58.8799 17.1221 59.7848 16.1592C60.2021 15.6957 60.7094 15.3277 61.2739 15.0788C61.8383 14.83 62.4473 14.706 63.0614 14.7148C63.695 14.6949 64.3256 14.8134 64.9115 15.0623C65.4975 15.3113 66.0255 15.6851 66.4608 16.1592C67.3423 17.1221 67.785 18.6508 67.7889 20.7452V34.9063C67.7889 35.2255 67.9122 35.5317 68.1317 35.7574C68.3511 35.9831 68.6488 36.11 68.9591 36.11H73.1367C73.2972 36.1172 73.4574 36.0893 73.6067 36.0281C73.756 35.9669 73.8909 35.8737 74.0026 35.7549C74.2043 35.5215 74.313 35.2185 74.3069 34.9063V20.7452C74.3069 18.6508 74.7574 17.1221 75.6584 16.1592C76.0757 15.6957 76.583 15.3277 77.1475 15.0788C77.7119 14.83 78.3209 14.706 78.935 14.7148C79.5716 14.6887 80.2064 14.8018 80.7974 15.0466C81.3884 15.2915 81.9222 15.6625 82.3636 16.1351C83.2335 17.082 83.6684 18.6187 83.6684 20.7452V34.9063C83.6684 35.2255 83.7917 35.5317 84.0111 35.7574C84.2306 35.9831 84.5282 36.11 84.8386 36.11H88.9342C89.0948 36.1172 89.255 36.0893 89.4043 36.0281C89.5535 35.9669 89.6885 35.8737 89.8001 35.7549C90.005 35.5235 90.1141 35.2191 90.1044 34.9063V20.3419C90.1044 16.7269 89.2521 13.9725 87.5475 12.0788Z" fill="white"/>
<path d="M117.949 21.1003C117.816 17.4893 116.863 14.6065 115.088 12.4519C113.313 10.2974 110.778 9.22813 107.482 9.24417C105.232 9.14102 103.017 9.84991 101.221 11.2483C101.098 11.3626 100.975 11.477 100.858 11.5973C99.9275 12.4703 99.179 13.5289 98.6585 14.7088C98.6789 13.4513 98.9813 12.2155 99.542 11.0978C99.5712 11.0376 99.6005 10.9714 99.6356 10.9113C99.6312 10.5997 99.5096 10.3019 99.2962 10.0807C99.1782 9.96434 99.0387 9.87348 98.8859 9.81353C98.7332 9.75357 98.5703 9.72573 98.4069 9.73166H94.4633C94.1536 9.72177 93.8527 9.83864 93.6267 10.0566C93.5099 10.1696 93.4181 10.307 93.3575 10.4597C93.297 10.6123 93.269 10.7766 93.2756 10.9413V43.5005C93.2751 43.5787 93.2925 43.656 93.3263 43.726C93.3602 43.7961 93.4095 43.857 93.4704 43.9039C93.5313 43.9507 93.6021 43.9822 93.677 43.9957C93.7519 44.0093 93.8289 44.0046 93.9017 43.982L99.3021 41.4302C99.4834 41.3738 99.6425 41.2593 99.7561 41.1034C99.8698 40.9476 99.9321 40.7584 99.934 40.5636V33.0106C101.674 35.4179 104.186 36.6216 107.47 36.6216C110.793 36.6216 113.321 35.5383 115.135 33.3596C116.948 31.181 117.867 28.3163 117.967 24.7715C117.967 24.3622 118.013 23.7544 118.013 22.966C118.013 22.1776 117.972 21.5035 117.949 21.1003ZM111.197 24.4465C110.963 28.9081 109.091 31.1369 105.58 31.1328C104.804 31.1843 104.027 31.0515 103.308 30.7447C102.59 30.4379 101.95 29.9653 101.438 29.3634C100.47 28.1463 99.9333 26.6267 99.9164 25.0543C99.8755 24.615 99.8696 23.959 99.8696 23.0743C99.8696 22.1896 99.8696 21.5577 99.9164 21.1544C99.929 19.5103 100.445 17.912 101.391 16.5865C102.311 15.3387 103.708 14.7148 105.58 14.7148C109.091 14.7148 110.963 16.9436 111.197 21.4012C111.232 21.7442 111.25 22.2558 111.25 22.9238C111.25 23.5919 111.232 24.1034 111.197 24.4465Z" fill="white"/>
<path d="M141.329 12.8913C139.211 10.4519 136.196 9.23616 132.284 9.24418C128.477 9.24418 125.497 10.4599 123.344 12.8913C121.19 15.3227 120.114 18.6488 120.114 22.8697L120.161 24.1335C120.293 28.1257 121.436 31.201 123.589 33.3596C125.742 35.5182 128.668 36.5995 132.366 36.6035C134.447 36.6504 136.513 36.2401 138.427 35.3998C139.946 34.746 141.314 33.7699 142.441 32.5351C143.377 31.4398 143.845 30.4849 143.845 29.6704C143.852 29.534 143.826 29.3979 143.77 29.2742C143.714 29.1504 143.629 29.0426 143.524 28.9602C143.305 28.7907 143.037 28.7017 142.763 28.7075H138.427C138.141 28.6884 137.854 28.7315 137.585 28.8338C137.309 29.0066 137.065 29.2288 136.865 29.4898C136.338 30.2267 135.647 30.8228 134.85 31.228C134.053 31.6333 133.173 31.8359 132.284 31.8189C131.543 31.8515 130.804 31.7007 130.132 31.3792C129.459 31.0577 128.87 30.5749 128.416 29.9713C127.441 28.6138 126.914 26.9709 126.913 25.283V24.8798H143.295C143.459 24.8853 143.622 24.8566 143.775 24.7956C143.928 24.7346 144.067 24.6425 144.185 24.5247C144.296 24.4113 144.383 24.2762 144.443 24.1273C144.502 23.9785 144.532 23.8189 144.53 23.6581V22.6169C144.522 18.5686 143.455 15.3267 141.329 12.8913ZM137.708 20.5947H126.913V20.4924C126.824 18.764 127.332 17.0589 128.346 15.6778C128.82 15.0821 129.423 14.6086 130.107 14.2951C130.791 13.9816 131.536 13.8368 132.284 13.8723C133.035 13.8396 133.784 13.9855 134.472 14.2986C135.16 14.6117 135.769 15.0836 136.251 15.6778C137.28 17.052 137.797 18.76 137.708 20.4924V20.5947Z" fill="white"/>
<path d="M171.321 20.697C171.15 17.1462 169.999 14.3497 167.869 12.3075C165.739 10.2653 162.783 9.24414 158.999 9.24414C155.192 9.24414 152.22 10.2653 150.082 12.3075C147.945 14.3497 146.794 17.1462 146.63 20.697L146.583 22.9238L146.63 25.1566C146.802 28.7395 147.935 31.5481 150.03 33.5823C152.124 35.6165 155.114 36.6195 158.999 36.5914C162.845 36.5914 165.817 35.5884 167.916 33.5823C170.014 31.5762 171.15 28.7676 171.321 25.1566C171.35 24.7474 171.368 24.0071 171.368 22.9238C171.368 21.8405 171.35 21.1002 171.321 20.697ZM164.516 24.9098C164.452 27.0704 163.931 28.7074 163.013 29.8208C162.509 30.3915 161.886 30.8383 161.191 31.1279C160.497 31.4175 159.747 31.5426 158.999 31.4939C158.248 31.5415 157.495 31.416 156.797 31.1266C156.098 30.8371 155.471 30.391 154.962 29.8208C154.01 28.7094 153.499 27.0724 153.429 24.9098L153.382 22.9298L153.429 20.9558C153.499 18.7932 154.01 17.1442 154.962 16.0087C155.47 15.4349 156.096 14.9852 156.794 14.6926C157.493 14.3999 158.246 14.2718 158.999 14.3176C159.745 14.2752 160.49 14.4051 161.181 14.6978C161.871 14.9904 162.489 15.4384 162.989 16.0087C163.941 17.1482 164.45 18.7972 164.516 20.9558C164.552 21.2928 164.569 21.9488 164.569 22.9298C164.569 23.9108 164.552 24.5668 164.516 24.9038V24.9098Z" fill="white"/>
<path d="M195.562 12.2834C193.783 10.2532 191.384 9.24014 188.365 9.24415C185.03 9.24415 182.376 10.4037 180.402 12.7227C179.929 13.325 179.536 13.9887 179.232 14.6968C179.25 13.4396 179.55 12.2038 180.109 11.0858C180.121 11.0565 180.134 11.0283 180.15 11.0015V10.9353C180.158 10.7721 180.134 10.609 180.078 10.4559C180.023 10.3028 179.938 10.1628 179.828 10.0446C179.714 9.93261 179.579 9.84556 179.431 9.78868C179.283 9.73179 179.126 9.70625 178.968 9.71358H174.873C174.719 9.70948 174.566 9.73661 174.422 9.79341C174.279 9.85021 174.147 9.93556 174.036 10.0446C173.92 10.1587 173.828 10.2974 173.769 10.4512C173.709 10.6049 173.683 10.77 173.691 10.9353V34.9063C173.688 35.0665 173.716 35.2256 173.776 35.3738C173.835 35.5219 173.924 35.6557 174.036 35.7669C174.146 35.8803 174.276 35.9701 174.42 36.031C174.563 36.092 174.717 36.1229 174.873 36.122H179.255C179.415 36.1296 179.574 36.1018 179.723 36.0405C179.871 35.9792 180.005 35.886 180.115 35.7669C180.221 35.6523 180.304 35.5172 180.359 35.3696C180.415 35.2219 180.441 35.0645 180.437 34.9063V20.9498C180.348 19.2824 180.896 17.6453 181.964 16.3879C182.483 15.8284 183.112 15.3896 183.809 15.101C184.507 14.8124 185.256 14.6807 186.007 14.7148C186.752 14.6671 187.499 14.7896 188.193 15.0737C188.887 15.3578 189.511 15.7963 190.021 16.3578C190.957 17.4612 191.425 18.9918 191.425 20.9498V34.9063C191.425 35.2255 191.548 35.5317 191.768 35.7574C191.987 35.9832 192.285 36.11 192.595 36.11H197.03C197.191 36.1172 197.351 36.0893 197.5 36.0281C197.649 35.9669 197.784 35.8738 197.896 35.7549C198.105 35.5206 198.219 35.2123 198.212 34.8943V20.6429C198.216 17.1001 197.332 14.3136 195.562 12.2834Z" fill="white"/>
<path d="M244.569 12.7107C242.642 10.3756 239.97 9.20807 236.553 9.20807C233.394 9.20807 230.858 10.2753 228.947 12.4098C227.036 14.5443 225.959 17.3669 225.717 20.8776L225.671 22.9118L225.717 24.94C225.983 28.4908 227.067 31.3234 228.97 33.4379C230.874 35.5523 233.392 36.6095 236.524 36.6095C238.331 36.64 240.122 36.2641 241.772 35.5082C243.141 34.9073 244.376 34.0245 245.4 32.9143C246.274 31.9192 246.711 31.0666 246.711 30.3565C246.714 30.2308 246.689 30.106 246.637 29.9921C246.585 29.8782 246.508 29.7783 246.412 29.7005C246.203 29.5249 245.939 29.4348 245.669 29.4477H244.879C244.602 29.4176 244.321 29.4698 244.072 29.5982C243.811 29.819 243.585 30.0786 243.399 30.3685C242.742 31.2697 241.911 32.0216 240.959 32.5772C239.617 33.3588 238.088 33.7363 236.547 33.6666C235.104 33.6993 233.687 33.2634 232.499 32.4208C231.337 31.584 230.41 30.4462 229.813 29.1227C229.173 27.7294 228.818 26.2155 228.772 24.6752V24.1636H246.324C246.623 24.1737 246.914 24.0661 247.138 23.8627C247.246 23.7595 247.33 23.6334 247.386 23.493C247.441 23.3527 247.466 23.2016 247.459 23.0502V22.2979C247.452 18.2416 246.488 15.0458 244.569 12.7107ZM244.446 21.335H228.772V21.1304C228.688 18.7927 229.435 16.5036 230.872 14.6908C231.572 13.8501 232.449 13.1845 233.436 12.7444C234.424 12.3044 235.496 12.1014 236.571 12.151C237.652 12.106 238.73 12.3107 239.724 12.7502C240.718 13.1897 241.604 13.8528 242.316 14.6908C243.783 16.4894 244.548 18.7843 244.464 21.1304L244.446 21.335Z" fill="#F6BD00"/>
<path d="M263.696 33.9253C263.591 33.8207 263.466 33.7395 263.329 33.6867C263.192 33.6339 263.046 33.6106 262.9 33.6184H260.191C258.757 33.6184 257.728 33.1309 257.113 32.1499C256.499 31.1689 256.183 29.7426 256.183 27.7926V12.7889H262.397C262.545 12.7997 262.693 12.7776 262.832 12.7242C262.971 12.6708 263.097 12.5874 263.202 12.4796C263.307 12.3717 263.388 12.242 263.44 12.0991C263.492 11.9563 263.513 11.8036 263.503 11.6515V10.9293C263.51 10.7777 263.487 10.6261 263.435 10.4841C263.382 10.3422 263.302 10.213 263.198 10.1048C263.092 10.0006 262.966 9.91966 262.828 9.86691C262.69 9.81415 262.544 9.79066 262.397 9.79784H256.183V1.13746C256.19 0.985002 256.167 0.83268 256.114 0.689855C256.062 0.547029 255.982 0.416719 255.879 0.306931C255.775 0.205688 255.653 0.12647 255.519 0.0738038C255.386 0.021138 255.244 -0.0039425 255.101 -3.76825e-06H254.223C254.077 -0.00741461 253.931 0.0159944 253.794 0.0687814C253.657 0.121568 253.533 0.202616 253.427 0.306931C253.324 0.416719 253.244 0.547029 253.192 0.689855C253.139 0.83268 253.116 0.985002 253.123 1.13746V9.79784H249.215C249.068 9.79066 248.921 9.81415 248.783 9.86691C248.645 9.91966 248.52 10.0006 248.413 10.1048C248.31 10.213 248.229 10.3422 248.177 10.4841C248.124 10.6261 248.101 10.7777 248.109 10.9293V11.6515C248.098 11.8036 248.12 11.9563 248.172 12.0991C248.224 12.242 248.305 12.3717 248.41 12.4796C248.514 12.5874 248.641 12.6708 248.779 12.7242C248.918 12.7776 249.067 12.7997 249.215 12.7889H253.123V27.9973C253.123 30.6814 253.642 32.7878 254.679 34.3165C255.715 35.8452 257.464 36.6095 259.945 36.6095H262.9C263.046 36.6173 263.192 36.594 263.329 36.5412C263.466 36.4884 263.591 36.4072 263.696 36.3026C263.799 36.1939 263.879 36.0646 263.931 35.9228C263.983 35.781 264.007 35.6296 264 35.478V34.7498C264.007 34.5983 263.983 34.4469 263.931 34.3051C263.879 34.1632 263.799 34.034 263.696 33.9253Z" fill="#F6BD00"/>
<path d="M223.453 20.7693C223.43 19.1784 223.151 17.6025 222.628 16.1051C222.148 14.7576 221.421 13.5175 220.486 12.4519C218.602 10.3094 215.958 9.23815 212.553 9.23815C209.147 9.23815 206.505 10.3094 204.625 12.4519V1.20369C204.631 1.05591 204.609 0.908265 204.559 0.769661C204.508 0.631057 204.431 0.504366 204.332 0.397231C204.228 0.292486 204.105 0.211101 203.969 0.158258C203.833 0.105415 203.687 0.08227 203.542 0.0902966H202.7C202.555 0.0816157 202.411 0.104479 202.276 0.157383C202.141 0.210286 202.018 0.292029 201.916 0.397231C201.811 0.501695 201.729 0.627362 201.675 0.766216C201.621 0.905069 201.595 1.05406 201.6 1.20369V22.8697L201.652 24.9881C201.75 28.3945 202.741 31.1669 204.625 33.3054C206.509 35.444 209.151 36.5132 212.553 36.5132C215.958 36.5132 218.602 35.444 220.486 33.3054C222.37 31.1669 223.359 28.3945 223.453 24.9881C223.506 24.6752 223.506 23.965 223.506 22.8697C223.506 21.7743 223.506 21.1063 223.453 20.7693ZM220.457 24.7594C220.364 27.588 219.603 29.7707 218.175 31.3074C216.655 32.7836 214.643 33.6059 212.553 33.6059C210.462 33.6059 208.45 32.7836 206.93 31.3074C205.506 29.7707 204.746 27.588 204.648 24.7594L204.601 22.8937L204.648 21.022C204.746 18.1854 205.506 16.0028 206.93 14.4741C208.45 12.9979 210.462 12.1756 212.553 12.1756C214.643 12.1756 216.655 12.9979 218.175 14.4741C219.603 16.0068 220.364 18.1894 220.457 21.022C220.492 21.353 220.51 21.979 220.51 22.8937C220.51 23.8085 220.492 24.4224 220.457 24.7594Z" fill="#F6BD00"/>
</g>
<defs>
<clipPath id="clip0_3100_1971">
<rect width="264" height="44" fill="white"/>
</clipPath>
</defs>
</svg>
